<svg viewBox="0 0 50 63" preserveAspectRatio="none"  fill="none" xmlns="http://www.w3.org/2000/svg">
<path d="M17.0077 43.1109C19.0216 46.749 21.0322 50.0027 22.3647 52.0984C22.5587 52.4034 22.7404 52.6863 22.9164 52.9588H18.8953C18.4452 52.9588 18.0803 53.4262 18.0803 54.0029C18.0803 54.5797 18.4452 55.0471 18.8953 55.0471H31.9351C32.3852 55.0471 32.75 54.5797 32.75 54.0029C32.75 53.4262 32.3852 52.9588 31.9351 52.9588H27.9139C28.0899 52.6863 28.2717 52.4032 28.4665 52.0984C29.7982 50.0099 31.808 46.749 33.8227 43.1109C35.8215 39.5739 37.6207 35.8585 39.2065 31.9933C40.8707 27.806 41.7151 24.3298 41.7151 21.6609C41.7206 16.115 40.003 10.7944 36.9416 6.87374C36.7372 6.60208 36.4342 6.49293 36.1492 6.58825C35.8642 6.68358 35.6415 6.96845 35.5667 7.33348C35.4919 7.6985 35.5767 8.08678 35.7884 8.34914C38.544 11.8787 40.0899 16.6684 40.0851 21.6607C40.0851 23.9977 39.301 27.1553 37.7542 31.045C36.2042 34.8207 34.4458 38.4499 32.4926 41.9049C30.5057 45.4959 28.5195 48.7131 27.2034 50.7806C26.7657 51.4677 26.3721 52.0754 26.0363 52.5892C25.8795 52.8185 25.6532 52.95 25.4153 52.95C25.1774 52.95 24.951 52.8184 24.7943 52.5892C24.4585 52.0755 24.0649 51.4677 23.6272 50.7806C22.311 48.7142 20.3248 45.4969 18.3379 41.9049C16.3847 38.4499 14.6263 34.8207 13.0763 31.045C11.5279 27.1553 10.7455 23.9977 10.7455 21.6607C10.745 14.0973 14.2753 7.26691 19.7104 4.31538C23.3624 2.35333 27.4765 2.35333 31.1285 4.31538C31.3967 4.461 31.7051 4.41242 31.9376 4.18763C32.1702 3.96296 32.2915 3.59635 32.2559 3.22594C32.2202 2.85553 32.0331 2.53762 31.765 2.392C23.4656 -2.09305 13.8998 2.88906 10.3967 13.5212C9.54716 16.0965 9.11146 18.8649 9.11557 21.6607C9.11557 24.3297 9.95995 27.806 11.6242 31.9984C13.2098 35.862 15.009 39.5756 17.0077 43.1109Z" fill="black"/>
<path d="M25.4151 12.2347C25.8652 12.2347 26.23 11.7673 26.23 11.1905C26.23 10.6138 25.8652 10.1464 25.4151 10.1464C21.527 10.1462 18.1802 13.6653 17.4216 18.5513C16.663 23.4372 18.7039 28.3292 22.296 30.2357C25.8881 32.1423 30.0311 30.532 32.1913 26.3899C34.3515 22.2479 33.9271 16.7275 31.1779 13.2048C30.9732 12.9334 30.6703 12.8245 30.3853 12.9201C30.1004 13.0157 29.8778 13.3008 29.8032 13.6658C29.7286 14.031 29.8136 14.4191 30.0255 14.6813C32.225 17.4994 32.5645 21.9155 30.8365 25.2293C29.1085 28.543 25.7941 29.8313 22.9204 28.3064C20.0467 26.7814 18.4139 22.8678 19.0206 18.959C19.6272 15.0502 22.3046 12.2348 25.4151 12.2347Z" fill="black"/>
<path d="M49.5576 57.7321L44.5454 46.2457C44.0922 45.2252 43.2442 44.5979 42.3278 44.6052H36.5194C36.0693 44.6052 35.7044 45.0727 35.7044 45.6494C35.7044 46.2261 36.0693 46.6936 36.5194 46.6936H42.3278C42.6541 46.6855 42.9585 46.9034 43.1241 47.2637L48.1347 58.7501C48.2711 59.0489 48.2683 59.4195 48.1273 59.7149C47.9608 60.0674 47.6598 60.2784 47.3384 60.2684H3.49182C3.17073 60.2782 2.87007 60.067 2.7037 59.7149C2.56273 59.4195 2.55996 59.0489 2.69635 58.7501L7.70693 47.2637C7.87225 46.9036 8.17635 46.6856 8.50231 46.6936H14.3108C14.7609 46.6936 15.1257 46.2261 15.1257 45.6494C15.1257 45.0727 14.7609 44.6052 14.3108 44.6052H8.50241C7.58554 44.5975 6.73686 45.2248 6.28321 46.2457L1.27176 57.7321C0.85392 58.6777 0.863566 59.8378 1.29707 60.7718C1.75379 61.7664 2.59129 62.3713 3.49182 62.357H47.3384C48.2387 62.3709 49.0759 61.7662 49.5324 60.7718C49.9659 59.8377 49.9756 58.6777 49.5576 57.7321Z" fill="black"/>
<path d="M40.9 49.8263H37.64C37.4791 49.8267 37.3218 49.8876 37.1877 50.0018L34.7427 52.0903C34.3683 52.4104 34.2672 53.0588 34.517 53.5386C34.7668 54.0184 35.2729 54.1479 35.6474 53.8279L37.8845 51.9149H40.9C41.3501 51.9149 41.715 51.4473 41.715 50.8707C41.715 50.2937 41.3501 49.8263 40.9 49.8263Z" fill="black"/>
<path d="M36.01 57.1357C36.01 57.7124 36.3748 58.1799 36.825 58.1799H43.345C43.7951 58.1799 44.1599 57.7124 44.1599 57.1357C44.1599 56.559 43.7951 56.0916 43.345 56.0916H36.825C36.3748 56.0916 36.01 56.559 36.01 57.1357Z" fill="black"/>
<path d="M15.6352 54.0031C15.9945 54.0037 16.3116 53.7027 16.416 53.2622C16.5204 52.8216 16.3873 52.3455 16.0883 52.0901L13.6434 50.0016C13.5091 49.8874 13.3514 49.8263 13.1902 49.8262H9.93025C9.48013 49.8262 9.1153 50.2937 9.1153 50.8703C9.1153 51.4471 9.48023 51.9145 9.93025 51.9145H12.9457L15.1853 53.8275C15.3186 53.9416 15.4751 54.0026 15.6352 54.0031Z" fill="black"/>
<path d="M7.48525 56.0916C7.03512 56.0916 6.67029 56.559 6.67029 57.1357C6.67029 57.7124 7.03512 58.1799 7.48525 58.1799H14.0052C14.4554 58.1799 14.8202 57.7124 14.8202 57.1357C14.8202 56.559 14.4554 56.0916 14.0052 56.0916H7.48525Z" fill="black"/>
</svg>
