<svg height="480pt" viewBox="-24 0 480 480.00006" width="480pt" xmlns="http://www.w3.org/2000/svg"><path d="m392.019531 0h-352c-4.214843-.0078125-7.714843 3.25-8 7.457031l-31.9999998 464c-.1523432 2.214844.6249998 4.390625 2.1406248 6.011719s3.640625 2.535156 5.859375 2.53125h48c4.207031.011719 7.703125-3.242188 8-7.441406l6.792969-96.558594h18.566406l6.640625 96.542969c.285157 4.207031 3.785157 7.46875 8 7.457031h48c2.230469.007812 4.367188-.921875 5.886719-2.554688 1.519531-1.636718 2.285156-3.835937 2.113281-6.0625l-3.664062-47.382812h207.949219l3.714843 48.617188c.320313 4.175781 3.808594 7.394531 8 7.382812h48c2.21875.003906 4.339844-.910156 5.855469-2.53125 1.519531-1.621094 2.292969-3.796875 2.144531-6.011719l-32-464c-.289062-4.207031-3.785156-7.4648435-8-7.457031zm-343.457031 464h-32l1.105469-16h14.351562v-16h-13.226562l1.105469-16h20.121093v-16h-19.015625l26.488282-384h17.054687l7.734375 112.136719zm23.382812-104 8.257813-116.992188 8.070313 116.992188zm287.433594 0h-207.953125l-22.765625-296h207.949219zm-204.257812 48-2.460938-32h207.949219l2.464844 32zm228.304687 56-31.40625-408.617188c-.324219-4.175781-3.8125-7.394531-8-7.382812h-224c-2.234375-.007812-4.367187.921875-5.886719 2.554688-1.519531 1.636718-2.285156 3.835937-2.113281 6.0625l31.359375 407.382812h-31.886718l-23.203126-336.425781-7.695312-111.574219h303.953125l5.519531 80h-14.046875v16h15.152344l1.101563 16h-16.253907v16h17.359375l18.757813 272h-12.117188v16h13.222657l2.207031 32zm0 0"/><path d="m184.019531 88h112v16h-112zm0 0"/><path d="m312.019531 264h-112c-4.417969 0-8 3.582031-8 8v32c.027344 22.082031 17.917969 39.972656 40 40h16c19-.023438 35.371094-13.386719 39.199219-32h24.800781c4.417969 0 8-3.582031 8-8v-32c0-4.417969-3.582031-8-8-8zm-40 40c0 13.253906-10.746093 24-24 24h-16c-13.253906 0-24-10.746094-24-24v-24h64zm32-8h-16v-16h16zm0 0"/><path d="m152.019531 128h56v16h-56zm0 0"/><path d="m224.019531 128h80v16h-80zm0 0"/><path d="m160.019531 160h32v16h-32zm0 0"/><path d="m208.019531 160h80v16h-80zm0 0"/><path d="m168.019531 192h144v16h-144zm0 0"/><path d="m176.019531 224h32v16h-32zm0 0"/><path d="m224.019531 224h16v16h-16zm0 0"/><path d="m256.019531 224h32v16h-32zm0 0"/><path d="m304.019531 224h16v16h-16zm0 0"/></svg>