<svg width="76" height="75" viewBox="0 0 76 75" fill="none" xmlns="http://www.w3.org/2000/svg">
<g clip-path="url(#clip0)">
<path d="M70.0633 75H5.85647C2.87919 75 0.45874 72.5795 0.45874 69.6045V5.39773C0.45874 2.42045 2.87919 0 5.85647 0H70.0633C73.0383 0 75.4587 2.42045 75.4587 5.39773V69.6045C75.4587 72.5795 73.0383 75 70.0633 75ZM5.85647 2.27273C4.13374 2.27273 2.73147 3.675 2.73147 5.39773V69.6045C2.73147 71.3273 4.13374 72.7273 5.85647 72.7273H70.0633C71.786 72.7273 73.186 71.3273 73.186 69.6045V5.39773C73.186 3.675 71.786 2.27273 70.0633 2.27273H5.85647Z" fill="black"/>
<path d="M37.9587 62.2113C24.3337 62.2113 13.2496 51.125 13.2496 37.5C13.2496 23.875 24.3337 12.7909 37.9587 12.7909C51.5837 12.7909 62.6701 23.875 62.6701 37.5C62.6701 51.125 51.5837 62.2113 37.9587 62.2113ZM37.9587 15.0636C25.5883 15.0636 15.5224 25.1295 15.5224 37.5C15.5224 49.8727 25.5883 59.9386 37.9587 59.9386C50.3314 59.9386 60.3974 49.8727 60.3974 37.5C60.3974 25.1295 50.3314 15.0636 37.9587 15.0636Z" fill="black"/>
<path d="M29.5792 38.8955C28.9519 38.8955 28.4428 38.3864 28.4428 37.7591V28.9773C28.4428 28.35 28.9519 27.8409 29.5792 27.8409C30.2064 27.8409 30.7155 28.35 30.7155 28.9773V37.7591C30.7155 38.3886 30.2064 38.8955 29.5792 38.8955Z" fill="black"/>
<path d="M46.3405 38.8955C45.7133 38.8955 45.2042 38.3864 45.2042 37.7591V28.9773C45.2042 28.35 45.7133 27.8409 46.3405 27.8409C46.9678 27.8409 47.4769 28.35 47.4769 28.9773V37.7591C47.4769 38.3886 46.9678 38.8955 46.3405 38.8955Z" fill="black"/>
<path d="M40.3656 47.1591H36.1133C35.486 47.1591 34.9769 46.65 34.9769 46.0227C34.9769 45.3954 35.486 44.8864 36.1133 44.8864H40.3656C40.9928 44.8864 41.5019 45.3954 41.5019 46.0227C41.5019 46.65 40.9928 47.1591 40.3656 47.1591Z" fill="black"/>
</g>
<defs>
<clipPath id="clip0">
<rect width="75" height="75" fill="white" transform="translate(0.45874)"/>
</clipPath>
</defs>
</svg>
