<svg height="480pt" viewBox="0 0 480 480" width="480pt" xmlns="http://www.w3.org/2000/svg"><path d="m304 144c0 4.417969-3.582031 8-8 8s-8-3.582031-8-8 3.582031-8 8-8 8 3.582031 8 8zm0 0"/><path d="m368 144c0 4.417969-3.582031 8-8 8s-8-3.582031-8-8 3.582031-8 8-8 8 3.582031 8 8zm0 0"/><path d="m319.847656 58.398438c18.566406-6.507813 39.148438.910156 49.296875 17.761718 1.457031 2.390625 4.054688 3.847656 6.855469 3.839844 2.882812-.003906 5.539062-1.554688 6.957031-4.066406 1.414063-2.507813 1.375-5.582032-.109375-8.054688-14.085937-23.347656-42.613281-33.617187-68.351562-24.605468-4.175782 1.476562-6.367188 6.0625-4.886719 10.238281 1.476563 4.179687 6.0625 6.367187 10.238281 4.886719zm0 0"/><path d="m472 464h-464c-4.417969 0-8 3.582031-8 8s3.582031 8 8 8h464c4.417969 0 8-3.582031 8-8s-3.582031-8-8-8zm0 0"/><path d="m232 232c0-4.417969-3.582031-8-8-8h-104c-4.417969 0-8 3.582031-8 8s3.582031 8 8 8h104c4.417969 0 8-3.582031 8-8zm0 0"/><path d="m184 256h-24c-4.417969 0-8 3.582031-8 8s3.582031 8 8 8h24c4.417969 0 8-3.582031 8-8s-3.582031-8-8-8zm0 0"/><path d="m472 400c4.417969 0 8-3.582031 8-8s-3.582031-8-8-8h-40v-32h40c4.417969 0 8-3.582031 8-8s-3.582031-8-8-8h-112c-13.253906 0-24 10.746094-24 24v16c.027344 2.730469.523438 5.4375 1.472656 8h-17.472656c-13.253906 0-24 10.746094-24 24v16c.027344 2.730469.523438 5.4375 1.472656 8h-25.472656v-8c0-13.253906-10.746094-24-24-24h-32v-32h64c17.671875 0 32-14.328125 32-32v-50.105469c32.476562 8.574219 66.015625-9.59375 76.574219-41.480469 28.429687 10.339844 47.375 37.335938 47.425781 67.585938 0 4.417969 3.582031 8 8 8s8-3.582031 8-8c-.074219-40.46875-27.714844-75.683594-67.007812-85.367188h-.3125c-2.527344-.617187-5.09375-1.105468-7.703126-1.496093 12.992188-8.765625 23.421876-20.820313 30.222657-34.9375 22.097656-3.863281 48.800781-15.488281 48.800781-62.199219 0-70.691406-57.308594-128-128-128s-128 57.308594-128 128c0 24.113281 7.144531 38.824219 17.078125 48h-161.078125c-17.671875 0-32 14.328125-32 32v128c0 17.671875 14.328125 32 32 32h64v32h-32c-13.253906 0-24 10.746094-24 24v8h-56c-4.417969 0-8 3.582031-8 8s3.582031 8 8 8h464c4.417969 0 8-3.582031 8-8s-3.582031-8-8-8h-32v-32zm-120-24v-16c0-4.417969 3.582031-8 8-8h56v32h-56c-4.417969 0-8-3.582031-8-8zm-24-104c-5.453125.003906-10.867188-.933594-16-2.769531v-29.230469h52c2.941406.007812 5.882812.207031 8.800781.59375h.214844c-6.949219 18.859375-24.914063 31.394531-45.015625 31.40625zm0-256c61.828125.066406 111.933594 50.171875 112 112 0 28-9.847656 39.273438-26.464844 44.328125 1.613282-6.65625 2.4375-13.480469 2.464844-20.328125v-48c0-4.417969-3.582031-8-8-8h-96c-4.417969 0-8 3.582031-8 8s3.582031 8 8 8h88v40c.25 21.980469-9.671875 42.84375-26.875 56.527344s-39.765625 18.652344-61.125 13.464844v-13.992188c0-17.671875-14.328125-32-32-32h-19.777344c-2.777344-7.699219-4.203125-15.816406-4.222656-24v-40h16c4.417969 0 8-3.582031 8-8s-3.582031-8-8-8h-24c-4.417969 0-8 3.582031-8 8v48c.023438 6.847656.855469 13.671875 2.472656 20.328125-16.617187-5.054687-26.472656-16.328125-26.472656-44.328125.066406-61.828125 50.171875-111.933594 112-112zm-192 320c0-13.253906 10.746094-24 24-24h16c4.417969 0 8-3.582031 8-8s-3.582031-8-8-8h-16c-22.082031.027344-39.972656 17.917969-40 40v16h-64c-8.835938 0-16-7.164062-16-16v-128c0-8.835938 7.164062-16 16-16h224c8.835938 0 16 7.164062 16 16v128c0 8.835938-7.164062 16-16 16h-64v-16c0-4.417969-3.582031-8-8-8s-8 3.582031-8 8v64h-64zm-56 88c0-4.417969 3.582031-8 8-8h160c4.417969 0 8 3.582031 8 8v8h-176zm240 8c-4.417969 0-8-3.582031-8-8v-16c0-4.417969 3.582031-8 8-8h40v32zm104 0h-48v-32h48zm0 0"/></svg>